/* XPM */
static char *_3edb7d94bdc419cbc7b912a911ac2778tKlrBtOJCvtvLBe[] = {
/* columns rows colors chars-per-pixel */
"32 32 10 1 ",
"  c black",
". c #484838",
"X c #684028",
"o c #787868",
"O c #907048",
"+ c #A07858",
"@ c #909078",
"# c #C8A878",
"$ c #A8A898",
"% c #F8E8A0",
/* pixels */
"@@oooooo....%%%%........oooooo@@",
"@@oooooo....%%%%........oooooo@@",
"oooo......%%##..............oooo",
"oooo......%%##..............oooo",
"oo......XX##  ..  ..  ..  ....oo",
"oo......XX##  ..  ..  ..  ....oo",
"......  XXOO##  ..  ..  ..OOOO..",
"......  XXOO##  ..  ..  ..OOOO..",
"....    XX##++%%        OO%%%%..",
"....    XX##++%%        OO%%%%..",
"..      XX##  ++%%      %%##  ..",
"..      XX##  ++%%      %%##  ..",
"..      XX##    OO%%  OO%%    ..",
"..      XX##    OO%%  OO%%    ..",
"..      XX++##    ++##XX%%    ..",
"..      XX++##    ++##XX%%    ..",
"..      XX++++##    ++XX##    ..",
"..      XX++++##    ++XX##    ..",
"..      XX++  ++##    XX##    ..",
"..      XX++  ++##    XX##    ..",
"..        XX    ++##  XX##    oo",
"..        XX    ++##  XX##    oo",
"..        XX++    OO##XX##    oo",
"..        XX++    OO##XX##    oo",
"....        XXXX    OOXX##    ..",
"....        XXXX    OOXX##    ..",
"oo....        XXXX    XXXX  ..oo",
"oo....        XXXX    XXXX  ..oo",
"oooo......      XXXX  XX  ..oo$$",
"oooo......      XXXX  XX  ..oo$$",
"@@@@@@oo..................oo@@@@",
"@@@@@@oo..................oo@@@@"
};
