/* XPM */
static char *f20bedae3395410fabe84f959325e68eEC9pIboHqMh6CdUF[] = {
/* columns rows colors chars-per-pixel */
"32 32 160 2 ",
"   c #2F2C38",
".  c #33303B",
"X  c #2F1544",
"o  c #331A4B",
"O  c #3E2A54",
"+  c #401D5D",
"@  c #462F5D",
"#  c #493D5A",
"$  c #48216A",
"%  c #4C3A63",
"&  c #4E356C",
"*  c #532775",
"=  c #572A7E",
"-  c #573A78",
";  c #4F495D",
":  c #51575D",
">  c #4E4262",
",  c #4F4F61",
"<  c #59466C",
"1  c #555466",
"2  c #584872",
"3  c #635C74",
"4  c #5C636B",
"5  c #5C6C6A",
"6  c #5F6470",
"7  c #636D6E",
"8  c #63726D",
"9  c #636474",
"0  c #696776",
"q  c #636C74",
"w  c #6A667E",
"e  c #696B7C",
"r  c #6C7A76",
"t  c #6A717B",
"y  c #717179",
"u  c #658D6D",
"i  c #619A69",
"p  c #698F71",
"a  c #6C857A",
"s  c #6C8A79",
"d  c #6D9D76",
"f  c #72937D",
"g  c #6CA674",
"h  c #6FA977",
"j  c #73AD7B",
"k  c #76B07E",
"l  c #592982",
"z  c #5F2C8A",
"x  c #622D8F",
"c  c #633588",
"v  c #6D3D95",
"b  c #6B319C",
"n  c #7535A1",
"m  c #654687",
"M  c #755894",
"N  c #716D86",
"B  c #746C89",
"V  c #6F7C81",
"C  c #767887",
"Z  c #757C85",
"A  c #76728C",
"S  c #79728D",
"D  c #7E7C8E",
"F  c #786792",
"G  c #7E7595",
"H  c #7E7896",
"J  c #7D709A",
"K  c #8C3FB7",
"L  c #837B96",
"P  c #83759A",
"I  c #857C9D",
"U  c #9057B6",
"Y  c #9076AD",
"T  c #9942C8",
"R  c #A24AD4",
"E  c #748781",
"W  c #7A8384",
"Q  c #798980",
"!  c #7B838C",
"~  c #779383",
"^  c #7B9389",
"/  c #7E9C89",
"(  c #7CA486",
")  c #7EA289",
"_  c #7AB482",
"`  c #7FB987",
"'  c #81898B",
"]  c #819A8B",
"[  c #868697",
"{  c #898A92",
"}  c #8A859C",
"|  c #908A9C",
" . c #829792",
".. c #8C9C9A",
"X. c #82A38D",
"o. c #84B58C",
"O. c #82BC8A",
"+. c #87A793",
"@. c #91A49F",
"#. c #8AB592",
"$. c #8BBB94",
"%. c #8EB299",
"&. c #93B49E",
"*. c #92BC9C",
"=. c #8B83A2",
"-. c #938DA2",
";. c #9986AD",
":. c #948BAA",
">. c #939DA2",
",. c #9A93AB",
"<. c #9895A8",
"1. c #9D95B0",
"2. c #A49CB4",
"3. c #95A9A5",
"4. c #96B7A2",
"5. c #9BB5A9",
"6. c #ABA3BB",
"7. c #ACAABA",
"8. c #86C08E",
"9. c #8BC593",
"0. c #8EC896",
"q. c #93C59C",
"w. c #93CD9B",
"e. c #97D19F",
"r. c #9BC5A5",
"t. c #99CAA2",
"y. c #9AD4A2",
"u. c #9FD9A7",
"i. c #A2C2AE",
"p. c #A2DCAA",
"a. c #ABCEB5",
"s. c #A6D4B0",
"d. c #A7E1AF",
"f. c #ACE6B4",
"g. c #AFE9B7",
"h. c #B3E6BD",
"j. c #B3EDBB",
"k. c #B7F1BF",
"l. c #B4ACC3",
"z. c #B5B1C1",
"x. c #BBB6C5",
"c. c #BDB6CA",
"v. c #C2BACF",
"b. c #C5B3D6",
"n. c #C7BED2",
"m. c #B7E9C0",
"M. c #BAF4C2",
"N. c #BFF8C8",
"B. c #CAC1D4",
"V. c #CFC7D8",
"C. c #D3CBD7",
"Z. c #D2CBDC",
"A. c #C3F2CB",
"S. c #C2FCCA",
"D. c #CBFFD3",
"F. c #D7CFE0",
"G. c #DDD5E5",
"H. c #E0D7E7",
"J. c #E1D9E7",
"K. c #ECE3ED",
/* pixels */
"e.e.w.0.e.y.9.8.y.y.0.0.0.w.e.e.e.e.e.w.w.w.9.0.9.9.e.e.9.0.e.e.",
"y.e.0.w.y.e.8.9.y.e.w.w.w.0.e.e.e.e.e.e.w.w.9.9.0.9.e.e.0.0.e.w.",
"j j y.y.g g w.w._ _ y.y.w.w.w.w.j.j.M.M.w.w.u.u.e.e.0.0.u.u.8.9.",
"j j y.u.g g e.w._ _ i.v.3.w.w.q.l.7.m.M.w.w.u.3.J J  .$.u.u.9.9.",
"j k k k k k j j j j r.H.x.&.&.5.n.6.h.j.j.j.[ n < H c M O.0.u.u.",
"k k k k k k j k j j e.l.v.G.H.v.c.W M.M.j.5.K q m.m.w.> , 9.y.u.",
"y.y.g g y.y.j j w.w.q.6.J.K.J.F.l.y q.w.p.H * h.u.p.9.f X S.9.0.",
"y.e.g g e.y.h j w.w.4.G.J.J.Z.l.l.| ~ w.p.x t M.u.p.8.~ $ r.0.9.",
"w.w.9.9.9.9.w.w.w.w.%.n.B.C.L J.l.,.A ) f.= q j.0.0.S.t b q w.t.",
"w.w.0.0.9.9.w.w.w.w.0.D V.6.;.n.2.Z 6 V f.c + g.0.0.S.% b > w.e.",
"0.9.y.u.p.u.e.e.8.9.e.^ ,.S N A 6 4.N / j.! x f S.S.f.+ b 1 e.e.",
"9.9.y.y.u.p.y.e.9.9.e.w.E 9 D ,.4 0 . N.j.s.c % N.S.~ b z f e.e.",
"u.y.y.y.M.M.9.0.e.y.u.&.x.F.n.G.6.3   9.D.D.2 z +.j.( l % t.0.0.",
"y.u.y.y.S.M.q.9.e.*.W 3 x.n.F.B.w w 2.y a.A.^ z 6 j.w.( 0.y.0.0.",
"w.0.y.y.@. .X.3.>.z.| ^ >.:.} w : $.~ { z.{ ! | o t.e.e.e.e.0.w.",
"0.w.*.2.-.G.G.7.' X.o.O.^ B.:.A / w.*.| | =.1.S o e.e.w.e.e.w.w.",
"y.u.( [ y <.v.f e.e.w.&.1 U Y P 3 %.f B.C } G - O t.h h ` 8.y.w.",
"u.y.` ` ' L ] w.e.e.&.l.R R K =.G.2.7 & * O ,.2., t.h h ` ` w.y.",
"0.0.u.u.p p _ k $.$.7.b.R K m Z.G.V.3 l b b M F r 8.y.y.8.8.0.w.",
"0.0.u.u.g g k _ 8.#.v.b.K T c B.G.l.I @ b b b 2 o.9.y.y.8.8.w.0.",
"y.y.` _ w.w._ k g g ..:.v n b < 2.I I # b x % $.M.M.u.y.g.g.0.0.",
"y.y._ ` e.w.k k g g t.C F < m = > H I # 6 %.q.9.M.M.y.y.g.g.0.0.",
"e.e.j j 0.0.y.p._ _ g a H e 9.X.4 5 w B %.M.p.f.j.M.f.g.j.g.y.y.",
"w.w.j h 0.9.p.p._ _ g s 6.E 9.9.j k $.3 r j.f.p.j.j.f.g.g.g.y.w.",
"0.0.j j i i w.e.O.O.d <.l./ j j j j y.8 ; e.j.j.w.w.j.j.y.y.e.y.",
"0.0.j j i i w.w.o...x.F.L r j j k k #.-.L #.k.j.0.w.j.g.w.y.y.w.",
"e.e.k k j j g g L 7.C.| u i O.O.0.w.f -.6.Z w.w.w.w.y.y.w.w.9.0.",
"e.e.k k j j g g u 8 Z t.i i O.O.0.$.{ B.7.V.X.e.y.w.y.y.w.w.0.0.",
"w.w.e.e.O.8.O.O.g h e.e.g g 0.0.y.e.Q Q a t *.w.0.9.y.y.0.0.w.w.",
"w.w.e.e.O.$.O.` h h e.e.g g w.0.e.y.e.y.9.8.w.e.0.9.y.y.0.0.0.w.",
"0.w.w.w.9.9.d.p.w.w.0.9.e.e.w.w.0.0.e.e.e.y.y.y.0.w.w.w.w.w.y.w.",
"w.0.0.0.9.9.d.d.0.w.9.0.e.e.w.w.9.0.e.e.y.e.y.y.w.0.0.w.w.w.w.e."
};
