/* XPM */
static char *_9d3b6132744435dc28f2f6ac1b131afXkZL0dfefmgMYv2w[] = {
/* columns rows colors chars-per-pixel */
"32 32 153 2 ",
"   c #010101",
".  c #090707",
"X  c #282020",
"o  c #2C3422",
"O  c #332D37",
"+  c #3E343B",
"@  c #413F1B",
"#  c #483622",
"$  c #4A3D3D",
"%  c #4E4506",
"&  c #7D5D0C",
"*  c #75630A",
"=  c #6A6017",
"-  c #4D4222",
";  c #54432D",
":  c #4D5325",
">  c #585324",
",  c #49423A",
"<  c #55463B",
"1  c #5C4A3C",
"2  c #55503E",
"3  c #645335",
"4  c #6A5C37",
"5  c #5E652F",
"6  c #5A6637",
"7  c #696925",
"8  c #766436",
"9  c #767839",
"0  c #434542",
"q  c #4A4944",
"w  c #4B4B45",
"e  c #524242",
"r  c #54574D",
"t  c #566647",
"y  c #586854",
"u  c #65644B",
"i  c #796945",
"p  c #637840",
"a  c #747646",
"s  c #796A58",
"d  c #687857",
"f  c #65795B",
"g  c #707C51",
"h  c #6B7961",
"j  c #8F770E",
"k  c #807219",
"l  c #8C7C1A",
"z  c #876C23",
"x  c #8C7926",
"c  c #8B7B3D",
"v  c #927E53",
"b  c #AE5D70",
"n  c #B46D6E",
"m  c #788454",
"M  c #67925A",
"N  c #718166",
"B  c #669761",
"V  c #629C6A",
"C  c #6C9D68",
"Z  c #769163",
"A  c #7A996E",
"S  c #7D9271",
"D  c #6BA573",
"F  c #6FA977",
"G  c #72AC7A",
"H  c #76B07E",
"J  c #9D8A0C",
"K  c #9D8916",
"L  c #9D811A",
"P  c #A78E15",
"I  c #A99415",
"U  c #B49C15",
"Y  c #BBA616",
"T  c #978224",
"R  c #8F8131",
"E  c #A18B23",
"W  c #AA9834",
"Q  c #BDAA2E",
"!  c #C2A90F",
"~  c #C5AD11",
"^  c #CFB81D",
"/  c #C5AA29",
"(  c #C7B128",
")  c #C9AF30",
"_  c #D9BF37",
"`  c #D9BF38",
"'  c #D7C127",
"]  c #D8C32B",
"[  c #DAC333",
"{  c #D7C438",
"}  c #DCC63B",
"|  c #E3CF37",
" . c #948349",
".. c #838C59",
"X. c #94995A",
"o. c #AAA045",
"O. c #81986C",
"+. c #82A06D",
"@. c #96AB6F",
"#. c #85A778",
"$. c #92AA7A",
"%. c #B7AB7C",
"&. c #C7B544",
"*. c #CCBD46",
"=. c #D0B84C",
"-. c #DF8579",
";. c #CEB863",
":. c #DCC844",
">. c #E2C947",
",. c #E2CE44",
"<. c #ECD943",
"1. c #F1DF4A",
"2. c #E9C154",
"3. c #EBD557",
"4. c #F7E652",
"5. c #F7E75F",
"6. c #F7E861",
"7. c #7AB482",
"8. c #7FB987",
"9. c #8FB681",
"0. c #83B984",
"q. c #82BC8A",
"w. c #8DBA8B",
"e. c #94B680",
"r. c #E88C89",
"t. c #86C08E",
"y. c #8EC28E",
"u. c #93C18D",
"i. c #8BC593",
"p. c #8EC896",
"a. c #93C492",
"s. c #95CA96",
"d. c #93CD9B",
"f. c #98CB9C",
"g. c #97D19F",
"h. c #A3CF9C",
"j. c #A9D19B",
"k. c #9AD4A2",
"l. c #9FD9A7",
"z. c #A6D3A1",
"x. c #A2DCAA",
"c. c #A7E1AF",
"v. c #B7E5AC",
"b. c #ADE7B5",
"n. c #AFE9B7",
"m. c #B3EDBB",
"M. c #B7F1BF",
"N. c #F6EC84",
"B. c #F7ED89",
"V. c #F7EF94",
"C. c #BAF4C2",
"Z. c #BFF9C7",
"A. c #C0FAC8",
/* pixels */
"g.g.d.p.g.k.i.t.k.k.p.d.p.p.g.g.g.d.g.g.d.d.i.i.p.i.g.d.p.p.d.g.",
"k.g.d.d.k.g.t.i.k.k.p.d.p.d.g.k.d.k.g.g.d.d.p.i.i.i.d.k.p.p.d.g.",
"G G k.k.D D d.d.7.7.k.k.d.d.d.d.m.n.C.C.d.d.l.l.g.g.p.p.l.l.i.i.",
"G G k.k.D D g.d.7.7.k.k.d.d.d.p.m.n.C.C.d.g.l.l.g.d.p.p.l.k.i.i.",
"H G H H H 7.G G G G k.w y q.k.k.d.g.M.M.n.n.g.d.M.m.d.d.p.i.k.l.",
"H H H H H H G G G G s.q $ f d.k.d.d.C.C.m.n.g.d.m.C.p.p.p.p.k.l.",
"k.k.D D g.k.G G p.d.A $ e $ S Z.p.p.d.d.c.l.Z.Z.l.l.q.i.Z.Z.p.p.",
"k.g.D D k.k.G G s.d.A , 1 L < N p.i.d.g.l.c.C.C.l.x.i.i.Z.Z.p.p.",
"d.p.p.p.p.i.d.d.d.d.q 3 U ~ P < $.Z.p.p.b.h.j.n.d.p.A.A.x.x.f.f.",
"d.d.p.p.i.i.d.d.d.d.O z ~ ~ ~ L S Z.p.a.h.O + h h p.Z.C.x.x.d.g.",
"i.p.k.k.l.x.g.g.i.y.y I ~ ! ! > M.C.A.A.d '  .8 q O q 0.d.d.g.g.",
"i.p.k.k.l.x.g.g.t.i.s.g x U I ..v.v.A.j.W 4.4.,.i e $ 0 p.p.g.g.",
"k.k.k.k.Z.Z.p.p.k.k.k.k...z =.;.) W X.a :.4.4.{ R e 0 w.g.g.p.p.",
"k.l.k.k.C.Z.p.p.k.k.z.@.T N.V.B.4.4.4.{ 4.4.4.{ 4 r w.d.g.g.p.p.",
"d.p.k.k.p.p.p.p.k.k.0.u v 4.6.4.3.>.4.} R *.{ 8 w a.g.g.g.g.d.d.",
"d.p.k.k.p.p.p.p.k.k.O.@ # 4.4.4.%.3 :.| P d 3 w u.d.g.g.d.g.d.d.",
"l.k.8.8.l.k.p.p.d.k.+.n ) { 4.4., q o.' J O.g.p.g.g.F F q.q.g.g.",
"k.g.8.q.k.g.d.d.k.f.s.s 2.<./ :.*.Q 3.-.4 d.d.p.d.g.G G q.8.g.d.",
"p.p.l.l.D D H 7.t.i.e.w K ] 1.4.4.>.r.b Z t.l.c.t.t.k.g.t.t.p.d.",
"p.p.l.k.D D H 7.t.t. .<.l ; x T x k = - Z q.x.l.t.t.k.k.t.t.d.p.",
"k.k.q.8.d.g.H H D D $.E I 3 1 1 $ j ~ :.f C.p.p.C.M.k.k.n.n.p.p.",
"k.k.q.H g.g.H H D D c.$.a R &.&.c ! * 5 m f.p.p.M.C.l.k.n.n.p.p.",
"d.g.F H p.p.l.l.7.7.F F m } B.6.4.^ % t . X w.c.M.M.b.b.M.n.g.g.",
"g.g.D G p.p.l.x.7.H F D #.K :.1.[ I - 6 o . + s.M.M.b.b.n.n.g.g.",
"p.p.G G V V p.d.q.q.D C 9 ( * * * j 5 k.M   u.M.d.d.M.n.g.g.g.g.",
"p.i.H F V V d.d.8.t.V C 7 * 6 H > ( ( t g.g.M.n.d.p.n.M.g.g.g.k.",
"g.g.H H G G D D D V l.k.B M 0.8.u.6 : w.d.p.d.g.g.g.g.g.g.d.d.p.",
"g.g.7.H G G F D V V l.l.V V q.q.p.d.p.d.s.p.d.g.d.d.g.g.d.d.p.p.",
"d.d.g.g.t.q.q.q.F D g.g.D D p.p.k.k.g.k.i.i.g.d.p.p.g.g.p.p.d.d.",
"d.d.g.g.8.q.q.q.F F g.k.D D p.p.k.g.k.g.i.p.g.g.p.p.k.g.p.p.d.p.",
"p.d.p.d.i.p.c.c.d.d.p.i.g.g.g.d.p.p.g.g.g.k.g.g.d.p.d.d.d.d.g.d.",
"p.d.d.d.i.i.x.c.p.d.i.p.g.g.d.d.p.i.d.g.g.g.g.g.d.d.p.d.d.p.g.g."
};
