/* XPM */
static char *_c78eba762764724c1ed98be32777639lIAEmIxq5q6GoDGr[] = {
/* columns rows colors chars-per-pixel */
"32 32 176 2 ",
"   c #1B1B1B",
".  c #231700",
"X  c #21251E",
"o  c #373417",
"O  c #252625",
"+  c #37373D",
"@  c #593408",
"#  c #663D09",
"$  c #433D39",
"%  c #714E0E",
"&  c #634C15",
"*  c #7B6317",
"=  c #544D26",
"-  c #5D5825",
";  c #514E30",
":  c #4C5638",
">  c #625C22",
",  c #6D5A23",
"<  c #625D2A",
"1  c #795F29",
"2  c #556234",
"3  c #5D6B39",
"4  c #776B2C",
"5  c #666631",
"6  c #727539",
"7  c #4B4D4F",
"8  c #4C5644",
"9  c #4A4A51",
"0  c #52525A",
"q  c #576949",
"w  c #596250",
"e  c #7B7F45",
"r  c #667853",
"t  c #68686A",
"y  c #AE3C0A",
"u  c #A93C20",
"i  c #C42119",
"p  c #985602",
"a  c #BB4A1A",
"s  c #8D6C11",
"d  c #976A12",
"f  c #87701E",
"g  c #997416",
"h  c #B47600",
"j  c #BE6119",
"k  c #A97915",
"l  c #88732C",
"z  c #93762D",
"x  c #8F7832",
"c  c #927837",
"v  c #CF401A",
"b  c #D95F1C",
"n  c #C87916",
"m  c #D24F2E",
"M  c #807A42",
"N  c #E65A42",
"B  c #6E9357",
"V  c #609A68",
"C  c #729B68",
"Z  c #7B9B74",
"A  c #73A46E",
"S  c #6BA573",
"D  c #6FA977",
"F  c #72AC7A",
"G  c #76B07E",
"H  c #BA8816",
"J  c #85833B",
"K  c #998734",
"L  c #9E9334",
"P  c #A48124",
"I  c #BF8D20",
"U  c #B29121",
"Y  c #A28A37",
"T  c #AD9731",
"R  c #B69838",
"E  c #C58509",
"W  c #D58E00",
"Q  c #CE8F11",
"!  c #CE9B1C",
"~  c #D79915",
"^  c #E9911E",
"/  c #DBA118",
"(  c #DBA31C",
")  c #E6A919",
"_  c #EBB11E",
"`  c #F2B41A",
"'  c #F5B91E",
"]  c #C08D21",
"[  c #C18F2F",
"{  c #C89824",
"}  c #D09D20",
"|  c #E18824",
" . c #DAAA25",
".. c #C4A635",
"X. c #C5B33B",
"o. c #D7B537",
"O. c #F1AA20",
"+. c #F7BD21",
"@. c #E4BA30",
"#. c #F7C125",
"$. c #F7C52A",
"%. c #EEC834",
"&. c #E1C23E",
"*. c #F7CD34",
"=. c #F6D33C",
"-. c #898645",
";. c #9A924E",
":. c #8B975A",
">. c #999251",
",. c #A49849",
"<. c #B0A74E",
"1. c #AAA756",
"2. c #B7B255",
"3. c #8DA46B",
"4. c #8DA96E",
"5. c #93A669",
"6. c #9FB66E",
"7. c #8AAA7A",
"8. c #88B379",
"9. c #C39341",
"0. c #ED9749",
"q. c #C3A946",
"w. c #C5B841",
"e. c #D2BE42",
"r. c #E3BE5C",
"t. c #CFC144",
"y. c #D6C045",
"u. c #E7CC43",
"i. c #F3CA4E",
"p. c #EBD144",
"a. c #ECD448",
"s. c #EEDB4C",
"d. c #F7DC46",
"f. c #F6DE4A",
"g. c #F8D94D",
"h. c #F5E14D",
"j. c #F7E652",
"k. c #FAEC73",
"l. c #7BB583",
"z. c #7FB987",
"x. c #83BD8B",
"c. c #8CBF88",
"v. c #95BD83",
"b. c #91BF8A",
"n. c #86C08E",
"m. c #94C189",
"M. c #9CC48D",
"N. c #99C98E",
"B. c #8BC593",
"V. c #8EC896",
"C. c #94C995",
"Z. c #99CA93",
"A. c #93CD9B",
"S. c #97D19F",
"D. c #A5C887",
"F. c #ADD08D",
"G. c #B8D192",
"H. c #9AD4A2",
"J. c #9FD9A7",
"K. c #ABD9A6",
"L. c #A2DCAA",
"P. c #AFDEA9",
"I. c #B7DEA8",
"U. c #B0E3AF",
"Y. c #ADE7B5",
"T. c #AFE9B7",
"R. c #BFEEB7",
"E. c #B3EDBB",
"W. c #B7F1BF",
"Q. c #FBEB91",
"!. c #FDF291",
"~. c #C4F0B4",
"^. c #FFF7A5",
"/. c #BBF5C3",
"(. c #C0FAC8",
"). c #CBFFD3",
/* pixels */
"S.S.V.A.S.S.B.n.H.H.V.A.V.V.A.H.A.S.S.A.A.A.B.B.B.B.A.S.V.V.A.S.",
"S.S.A.V.S.H.n.B.H.l.A.V.V.A.H.S.H.A.A.H.A.A.B.B.V.B.S.A.V.V.S.A.",
"F F J.H.S S A.A.q X b.H.A.A.A.V.E.E././.A.A.J.L.A.A.A.V.J.J.B.B.",
"F F H.J.S S S.A.: O r H.A.A.A.A.T.E././.V.A.L.J.S.S.V.V.J.J.B.B.",
"G G F l.G G F C   O ; H.x.x.H.H.A.A.W.W.T.T.7.Z E.E.V.A.B.B.J.J.",
"G G G F l.G F C   c z Z.n.x.H.J.A.A./.P.Z w 7 9 8 K.A.V.B.B.H.J.",
"H.S.S S H.H.F C , +.~ 3.V.V././.V.V.>.c 9 0 0 0 8 H.B.B.(.(.B.V.",
"S.H.S S H.H.F A l +.) ;.1.9.[ q.1.I j.j.2.0 + w L.L.n.B.(.(.V.B.",
"A.A.B.B.B.B.A.A.:.) ) r.Q.^.!.f.p.j.j.f.w.: M.U.B.V.R.R F.J.H.A.",
"A.A.V.V.B.B.A.A.A.k j.k.k.k.g.> o.j.( 4 7.Y.E.E.V.m.9.j.o.F.A.A.",
"B.B.H.J.L.J.S.S.-.1 o.j.j.j.M t ; j.K I.E.W.V.V.~.u.j.j.a.<.H.S.",
"B.B.H.H.J.L.S.S.-.$ e...*.j.o.o R i...G.W.E.V.2.&.h.j.j.j.I A.S.",
"J.J.H.H././.V.m.,...s...} g.j.j.0.N | 4 ).).,.p.j.j.j.j.j.y.6.V.",
"H.H.H.H././.B.v.u +. .p i y E *.v i b > ).G.@.j.j.j.j.j.j.j.,.V.",
"A.V.H.J.A.V.V.v.u +.+._ a m Q +.^ v O.5 m.! ' $.h.h.j.j.t.J N.S.",
"V.A.H.H.V.V.V.V.D.k +.+.n j ) +.+.+.' l ,.' #.#.#.$.d.> :.N.A.A.",
"H.H.z.z.H.H.A.A.S.& #.#.' #.' #.+.+.$.X.3.K _ +.! f 3 D x.x.A.A.",
"J.H.z.z.J.H.V.V.S.> h.*.#.' #.' +.$.h.X.3.Z.L _ Y v.D D x.x.A.S.",
"V.V.J.J.S S l.G n.U a.&.h.=.d.) =.j.j.y.3.n.:.~ H 8.S.H.n.x.C.A.",
"V.V.J.H.S S G l.6 j.h. .j.j.&.%.j.j.d.j.- x E ` ~ , H.H.n.x.A.A.",
"H.H.z.z.A.A.l.G 3 @.j.! j.f.] j.j.%.$.h.& h W g >.K.J.H.E.T.B.V.",
"H.H.l.z.S.A.G G 3 I j.=.o.t.k j.s.{ j.*.I . p - /./.H.H.T.T.B.V.",
"A.S.D D A.V.J.D.T &.{ H j.j.T ! { j.h.#.+.: & p r W.Y.Y.T.E.H.S.",
"S.H.D F V.A.J.6 %.j.u.s.j.j.j.&.h.=.=.+.#.@ # = P.W.T.Y.E.E.S.S.",
"V.V.F G V V A.< ' *.*.j.j.j.j.*.*.*.=.+.+.g 4.E.A.A.E.E.S.S.S.S.",
"V.V.F D V V S.m.H ' +.+.+.+.' #.+.+.+.+.` e E.W.A.A.E.E.S.S.S.H.",
"S.S.G G F F S A > d ) Q s - > P / ) ` ^ * b.A.A.A.S.S.S.A.A.V.V.",
"S.S.G G F F S J d / % @ B V x.8.5.z ) H < B.S.A.A.A.H.H.A.A.V.V.",
"A.A.S.H.n.n.z.8.2 3 N.S.S S V.V.S.4.6 * 6 B.A.A.B.V.S.H.V.C.A.A.",
"A.V.S.H.n.x.x.z.D D S.S.D S V.V.S.S.Z.v.c.B.A.S.V.B.H.S.V.V.A.A.",
"V.A.A.V.V.B.L.L.A.V.V.B.S.S.S.A.V.B.S.S.S.H.S.S.A.A.A.A.A.A.A.A.",
"A.V.V.A.B.B.L.Y.V.A.B.B.S.S.V.S.V.B.A.S.H.S.H.S.A.V.A.A.A.A.A.S."
};
