/* XPM */
static char *_b3291126f6949c58903b029eb36894buSqPViHMrmSTQzPX[] = {
/* columns rows colors chars-per-pixel */
"32 32 164 2 ",
"   c #040000",
".  c #0A0101",
"X  c gray4",
"o  c #130000",
"O  c #150101",
"+  c gray7",
"@  c #1E1E1E",
"#  c #202020",
"$  c #353535",
"%  c #520606",
"&  c #6F0707",
"*  c #650808",
"=  c #484848",
"-  c #4B4B4B",
";  c gray30",
":  c #555555",
">  c #6D6D6D",
",  c gray47",
"<  c #980707",
"1  c #980808",
"2  c #A50A0A",
"3  c #AB0A0A",
"4  c #AA0C0C",
"5  c #AC0C0C",
"6  c #B10A0A",
"7  c #B00D0D",
"8  c #B60E0E",
"9  c #B80F0F",
"0  c #BA0E0E",
"q  c #BA0F0F",
"w  c #B51010",
"e  c #BE1010",
"r  c #BD1212",
"t  c #C01010",
"y  c #C41212",
"u  c #C11414",
"i  c #C31414",
"p  c #C51414",
"a  c #C61515",
"s  c #CA1717",
"d  c #CC1717",
"f  c #CD1717",
"g  c #C21A1A",
"h  c #CC1919",
"j  c #CE1818",
"k  c #91725B",
"l  c #648D69",
"z  c #778364",
"x  c #798566",
"c  c #619067",
"v  c #629669",
"b  c #609A68",
"n  c #619B69",
"m  c #659F6D",
"M  c #699D70",
"N  c #779E76",
"B  c #68A270",
"V  c #6BA573",
"C  c #6CA674",
"Z  c #6EA876",
"A  c #6FA977",
"S  c #77A57D",
"D  c #7AA078",
"F  c #7BA078",
"G  c #7FA17B",
"H  c #71AB79",
"J  c #73AD7B",
"K  c #74AE7C",
"L  c #77B17F",
"P  c #808C6D",
"I  c #8A9677",
"U  c #7DAB83",
"Y  c #7BAF82",
"T  c #7EAF83",
"R  c #78B280",
"E  c #79B381",
"W  c #7BB583",
"Q  c #7FB286",
"!  c #7DB785",
"~  c #7FB987",
"^  c gray56",
"/  c #9B9B9B",
"(  c #83AA81",
")  c #84AB83",
"_  c #84AD89",
"`  c #96A183",
"'  c #83B487",
"]  c #83B189",
"[  c #84B78B",
"{  c #81BB89",
"}  c #82BC8A",
"|  c #84BE8C",
" . c #87BD8F",
".. c #98A199",
"X. c #9FA09F",
"o. c #8DBB93",
"O. c #94B690",
"+. c #A3ABA4",
"@. c gray70",
"#. c gray71",
"$. c #B5BBB5",
"%. c #B7B8B7",
"&. c #B9BEB9",
"*. c #BCBFBD",
"=. c #86C08E",
"-. c #88C290",
";. c #89C391",
":. c #8AC492",
">. c #8BC593",
",. c #8CC694",
"<. c #8EC896",
"1. c #8FC997",
"2. c #90CA98",
"3. c #92CC9A",
"4. c #93CD9B",
"5. c #94CE9C",
"6. c #96D09E",
"7. c #97D19F",
"8. c #98D2A0",
"9. c #9AD4A2",
"0. c #9BD5A3",
"q. c #9CD6A4",
"w. c #9ED8A6",
"e. c #9FD9A7",
"r. c #A0DAA8",
"t. c #A1DBA9",
"y. c #A5D8AC",
"u. c #A4DEAC",
"i. c #BEC1BF",
"p. c #BFC1BF",
"a. c #A7E1AF",
"s. c #A8E2B0",
"d. c #ADE7B5",
"f. c #AFE9B7",
"g. c #B1EBB9",
"h. c #B2ECBA",
"j. c #B3EDBB",
"k. c #B5EFBD",
"l. c #B7F1BF",
"z. c #B9F3C1",
"x. c #BAF4C2",
"c. c #BBF5C3",
"v. c #BCF6C4",
"b. c gray76",
"n. c gray86",
"m. c #DCDDDC",
"M. c #DDDDDD",
"N. c gray87",
"B. c #DFDFDF",
"V. c #C0FAC8",
"C. c #C1FBC9",
"Z. c #C4FECC",
"A. c gray88",
"S. c #E2E2E2",
"D. c gray89",
"F. c #E4E4E4",
"G. c #E6E6E6",
"H. c #E7E7E7",
"J. c gray91",
"K. c #E8E9E8",
"L. c #EAEAEA",
"P. c gray92",
"I. c #F2F3F2",
"U. c #F6F6F6",
/* pixels */
"7.7.2.2.8.8.;.;.7.0.1.3.2.2.7.7.7.7.7.5.4.4.,.,.,.,.7.4.1.<.5.5.",
"7.7.2.2.8.8.;.;.0.8.3.2.2.2.7.7.7.5.7.7.4.4.,.,.,.,.4.7.1.<.4.7.",
"J J 0.0.V V 5.5.E E 0.0.4.4.2.3.h.h.z.c.3.3.r.r.5.4.1.1.r.r.,.:.",
"J J 0.0.V V 5.5.E E 0.0.4.4.3.2.h.g.c.z.4.4.r.r.5.7.1.1.q.r.:.:.",
"L K K L L L K K J J 7.7.| | 7.0.4.5.l.l.g.g.7.4.k.k.2.3.,.,.r.0.",
"L L L L L L K K J J 7.7.| | 0.8.5.5.l.l.g.g.5.3.k.k.3.2.,.<.r.q.",
"7.8.C C 8.0.H H 2.3.4.4.<.1.v.v.,.<.5.5.u.u.v.c.r.r.;.;.V.V.,.,.",
"8.8.C C 8.8.H H 3.2.4.4.1.1.V.c.<.,.5.5.u.u.v.v.t.r.;.;.V.V.<.,.",
"3.3.<.<.,.,.3.5.3.3.G x P P ` ` ` ` z z I O.g.h.2.1.V.C.u.u.5.4.",
"3.3.<.<.,.,.5.3.5.k h d d d h d j d d d d h P h.<.<.V.V.u.u.5.4.",
",.,.0.0.r.r.7.7.T g a a a s s s d d d d d j g ' Z.Z.s.s.3.2.7.7.",
",.,.0.0.r.r.7.7.N w r u i i a a s y y y t t w G Z.Z.s.s.2.2.5.7.",
"q.q.0.0.c.v.<.<.( 4 8 9 9 r r y y t q q 9 8 4 F j.j.4.4.7.7.1.1.",
"q.q.8.0.v.v.<.<.) 1 5 5 8 9 * O . % 9 9 7 5 1 G j.j.4.3.7.7.<.<.",
"2.2.0.0.<.2.<.<.) < 2 3 6 & # %.b.$ % 6 4 2 1 G 5.5.7.7.5.7.3.3.",
"2.2.0.0.2.<.<.<.) O O O O . ^ I.U.#.  O O o o F 4.7.5.7.7.7.3.3.",
"q.q.{ ! q.q.2.2.U = - - - @ , H.H./ + ; - - = S 5.5.A A { { 5.7.",
"q.q.! { q.q.2.1.] D.L.L.L.@.X > , + ^ P.L.H.F.U 5.8.A A { { 5.5.",
",.1.r.r.B V L E S D.H.F.L.H.@.: - +.L.H.F.H.S.o.:.;.7.8.=.=.2.2.",
"2.,.r.r.B B E L S m.D.D.D.F.H.F.H.H.F.F.D.S.m.o.;.;.8.0.=.=.2.3.",
"8.q.! ! 5.5.E E c B.B.S.D.D.S.D.S.S.D.S.B.B.m.U z.z.q.q.g.f.,.<.",
"q.8.! ! 5.5.J E m $.n.m.m.m.m.B.M.M.M.B.M.n.&.o.z.z.q.q.f.f.<.<.",
"5.5.H H 1.1.0.r.W l ..*.i.i.i.i.p.p.p.p.p.+._ s.k.k.d.d.g.g.8.8.",
"8.5.H H 1.2.r.0.W W B v Y Y Q ' M M [ [ y.g.u.s.k.k.d.d.g.g.7.7.",
",.2.J J n b 3.5.} } B B 8.8.J J K K 8.q.8.8.k.h.2.5.h.h.8.7.8.8.",
"2.,.J J b b 5.5.{ | B B 8.8.K K K J 0.q.7.5.k.k.5.2.g.g.8.7.8.8.",
"8.8.K E J H C C m m q.e.n n { { 2.2.3.3.<.2.5.5.5.5.8.8.3.5.,.<.",
"8.5.E K H H C C m m q.q.n n { { 2.2.3.2.2.<.5.5.5.5.q.8.5.5.<.<.",
"5.2.8.8.| | | { H C 8.8.C C 2.<.8.8.8.8.:.,.5.5.,.,.q.8.<.2.2.2.",
"2.4.5.8.| | { { C A 8.8.C C <.2.0.8.8.8.,.,.5.7.2.,.8.8.2.<.2.3.",
"2.4.2.4.,.,.u.a.2.3.,.,.8.7.5.3.<.<.7.5.8.8.8.8.2.2.3.3.3.3.8.5.",
"2.2.2.4.,.,.u.u.2.2.,.,.7.7.5.3.<.,.7.5.8.8.8.8.5.2.3.3.3.2.8.5."
};
