/* XPM */
static char *_1fa151f3c2e45869ba1083c0176f314OQrJ8QLs5VwOhl2H[] = {
/* columns rows colors chars-per-pixel */
"32 32 204 2 ",
"   c #2F2D16",
".  c #1F1F22",
"X  c #31362A",
"o  c #412B0C",
"O  c #472A18",
"+  c #523A14",
"@  c #492D22",
"#  c #443A28",
"$  c #5E3E2C",
"%  c #753A25",
"&  c #713B2A",
"*  c #704F0C",
"=  c #77530F",
"-  c #6C4516",
";  c #774A1B",
":  c #795519",
">  c #78611B",
",  c #4F442F",
"<  c #5C472E",
"1  c #464533",
"2  c #5A573E",
"3  c #6D4325",
"4  c #664C28",
"5  c #774728",
"6  c #685129",
"7  c #655738",
"8  c #785D34",
"9  c #7D6433",
"0  c #706C34",
"q  c #7B693E",
"w  c #5D6C4F",
"e  c #5D7355",
"r  c #686143",
"t  c #786245",
"y  c #7A7649",
"u  c #656D53",
"i  c #687858",
"p  c #767C58",
"a  c #707E65",
"s  c #835717",
"d  c #855B12",
"f  c #835A1B",
"g  c #9A5D1C",
"h  c #8A6012",
"j  c #9B6B12",
"k  c #976518",
"l  c #A06F13",
"z  c #AB741D",
"x  c #864924",
"c  c #88542B",
"v  c #965826",
"b  c #935333",
"n  c #A04F2A",
"m  c #A74F3B",
"M  c #B85B34",
"N  c #91722E",
"B  c #856834",
"V  c #B5672B",
"C  c #AA7428",
"Z  c #B97727",
"A  c #B56731",
"S  c #BA7733",
"D  c #C15E31",
"F  c #C66D2C",
"G  c #C87729",
"H  c #C66836",
"J  c #D26F31",
"K  c #C47833",
"L  c #D67431",
"P  c #D67930",
"I  c #DD7B31",
"U  c #E07E30",
"Y  c #87784C",
"T  c #867D54",
"R  c #C9794D",
"E  c #7A8859",
"W  c #7A9259",
"Q  c #778B68",
"!  c #6B976D",
"~  c #639C6B",
"^  c #789468",
"/  c #7B956E",
"(  c #7B9D74",
")  c #6BA573",
"_  c #6EA876",
"`  c #75A876",
"'  c #7AA67B",
"]  c #72AC7A",
"[  c #76B07E",
"{  c #B28A0B",
"}  c #BB8B1D",
"|  c #8A853A",
" . c #99863A",
".. c #B98427",
"X. c #AF8D3B",
"o. c #CA960C",
"O. c #D49A0A",
"+. c #C79C19",
"@. c #D8A91E",
"#. c #E6AA08",
"$. c #F3B403",
"%. c #FEBC00",
"&. c #D4882D",
"*. c #D09126",
"=. c #DE9727",
"-. c #DD8031",
";. c #C39639",
":. c #E58A2E",
">. c #E48C2D",
",. c #E49E27",
"<. c #E3952C",
"1. c #EA942D",
"2. c #ED9C2C",
"3. c #E28330",
"4. c #EA9D3D",
"5. c #D6A92C",
"6. c #C4A838",
"7. c #D7AE38",
"8. c #EEA727",
"9. c #ECA329",
"0. c #F3A62A",
"q. c #F6AC29",
"w. c #E6B421",
"e. c #E8AB37",
"r. c #EDA33B",
"t. c #E6BB38",
"y. c #F5B639",
"u. c #FABD3B",
"i. c #FFC514",
"p. c #FFCE2D",
"a. c #FAC738",
"s. c #88874A",
"d. c #888955",
"f. c #9F8C59",
"g. c #959654",
"h. c #AC9F49",
"j. c #A58E54",
"k. c #B5A142",
"l. c #A6A556",
"z. c #B6A756",
"x. c #86966A",
"c. c #959A67",
"v. c #849B75",
"b. c #819F78",
"n. c #AA916C",
"m. c #91AC6E",
"M. c #84A277",
"N. c #8CAA73",
"B. c #84AC7C",
"V. c #98AD75",
"C. c #A3A66F",
"Z. c #ACB563",
"A. c #CA9558",
"S. c #CAB74D",
"D. c #DCBB43",
"F. c #C5A659",
"G. c #D7A556",
"H. c #F2B252",
"J. c #D1946C",
"K. c #D0AF7A",
"L. c #F3C949",
"P. c #FED954",
"I. c #FDD45B",
"U. c #FBD858",
"Y. c #F9D175",
"T. c #7BB382",
"R. c #83AD83",
"E. c #89AE81",
"W. c #84B586",
"Q. c #8EB483",
"!. c #84B588",
"~. c #83BC8A",
"^. c #8BBC8D",
"/. c #96B886",
"(. c #B4B18B",
"). c #89C08F",
"_. c #90C38C",
"`. c #8BC593",
"'. c #8EC896",
"]. c #92C594",
"[. c #92C698",
"{. c #93CC9A",
"}. c #97D19F",
"|. c #9AD19F",
" X c #B5D495",
".X c #9AD4A2",
"XX c #9FD9A7",
"oX c #A6D7A9",
"OX c #A3DDAB",
"+X c #ABE4B2",
"@X c #B2ECBA",
"#X c #B7F1BF",
"$X c #EFC89E",
"%X c #FAD291",
"&X c #FFE296",
"*X c #F7DAA8",
"=X c #F0D4BB",
"-X c #FEE5AB",
";X c #BAF4C2",
":X c #F6DFC6",
">X c #C1FAC9",
",X c #F5E3C2",
"<X c #FDEACA",
"1X c #FFEFD5",
/* pixels */
"}.}.{.'..X.X`.)..X.X[.{.'.'.|.^.^.].}.}.{.{.'.`.^.W.^.[.{.'.{.}.",
".X}.{.{.}.}.`.)..X}.{.[.'.{.Q q < Q.}.}.{.{.!.^ y B 9 T `.'..X{.",
"] ] .X.X) ) {.{.T.T..X.X'.p f : x.+X;X;X{.N.9 s j O.Y W.OXXX`.`.",
"] ] .X.X) ) {.}.T.T..X}.Q f h 6 oX@X;X#XV.B d } t.g._.].XX.X`.`.",
"[ [ [ [ T.[ [ ] ] ] }.T.9 d 5 # {.}.#X+Xc.d j 7.X.oX{.{.`.'..XXX",
"[ [ [ [ [ [ ] [ ] ] }.i s f O Q.}.{.#XoX; d } a.C.+X'.'.`.'..XXX",
"{.}.) ) .X}.] _ {.{.{.i s 5 @ oX`.`.'.R.- j @.L.X.s.B.~.>X>X'.'.",
"l.).) ) .X.X] ] '.{.{.i 5 5 @ (.c.Y T Y + k 5.U.k.q 0 M.;X>X'.`.",
"k.B.'.'.`.'.{.{.{.{.{.B.t 5 b C &.q.8.0.C s ..d.B.N.V.d.OXOX}.}.",
"7.Z.`.'.`.`.{.{.{.{.{.`.T S <.q.0.,.X.z =.k - c.).` M.#XOXOX}.{.",
"D.6.^.|.XXOX}.}.).).}.[ t ..q.q.q.Z X o u.e.Z B oX>X+X+X'.'.}.}.",
"S.L.Z.}.XXOX}.}.`.).'.c.b C <.q.q.G s C P.P.4.V (.;X+X+X{.'.}.}.",
"S.P.X.`.#X Xm.{.|..XW.z.r.<.<.Z G *.9.y.U.P.r.F c.@X}.{..X}.'.'.",
"W t.p.h. X+.g.{.|..XE.z.L.=.S >.8.8.q.q.u.y.3.I 5 XX'.{.}.}.'.'.",
"E w.p.i.+.$.X._..X.XT.l.9.q.q.q.q.q.q.q.q.1.U I F d.{.}.}.}.{.'.",
"^ @.i.i.i.i.{ /..XXX).! ;.0.q.q.q.q.q.0.:.U I I I 8 /.}.}..X'.}.",
"Q.6.%.%.%.%.#.l.}.}.'.^.j.&.q.y.a.L.4.I U L J I 3.V p _ T.).}.{.",
"|.z.#.%.%.%.i. .{.}.{.{.Q K r.I.I.I.P.H.-.V &.9.0.I v E ).T.}.}.",
"'.N.5.$.%.%.i.o.m.).'.W.j.G I.&X-X&XI.I.;.v *.q.2.I J 8 T.).'.{.",
"'.).h.$.%.%.{ $. .~.W.s.G G.<X1X1X1X<XY.k d k Z P I H m 2 ~.'.{.",
".X.X^ +.$.O.| O.O.^ N.> j K.1X1X1X1X1X,X4 = s v V L D M c /.' !.",
".X.XT.g.@.l ` | { N E * f n.1X1X1X1X1X1X(.f.S <.1.U U L G 6 u a ",
"}.{.] ) l.: OX|.W : +   + K.1X1X1X1X1X1X1X$X4.q.q.1.I R M & p b.",
"}.}.] ] ).` XX|.[ ~ w   @ A.<X1X1X1X1X1X:XJ.r.q.q.q.L H m & / {.",
"'.'.] ] ~ ~ '.{.~.~.~ ~ `.f.$X1X1X1X1X1X=XR 2.q.q.q.U L D b Q .X",
"'.'.] ] ~ ~ {.{.~.~.) ) .Xv.F.<X1X1X1X1X=XR 1.q.q.2.U U D 4 ^.|.",
"}.}.[ [ ] ] ) ) ~ ) oX.X~ ~   G.*X1X1X1X:XJ.J :.1.U U J x 2 [.{.",
"}.}.[ [ ] ] _ ) ~ ~ ].v.4 o z ; C H.%X%XY.A n J U J D M O . u Q ",
"{.{.}.}.~.~.~.~._ ) Q 3 : 5 s x 5 2 b n v 3 $ b M M % # E.R.u X ",
"{.{.}.}.).~.~.~._ ) b.< 3 3 $ 1 E.|.E.v./ M.x.5 ; g ; / ^.[.{.}.",
"'.{.{.{.'.`.OXOX{.'.`.! e e ( {.'.'.|.{..XR.t ; 3 : r [.[.{.}.}.",
"'.{.'.{.`.'.OX+X{.{.`.`..X}.{.{.'.'.|.{.|.).u , , 7 T.{.{.[.}.}."
};
