/* XPM */
static char *_0825ee864b8461df9333d3f62ca9c1bUkknEBoWBKwX6SX3[] = {
/* columns rows colors chars-per-pixel */
"32 32 50 1 ",
"  c #609A68",
". c #619B69",
"X c #659F6D",
"o c #69A371",
"O c #6BA573",
"+ c #6DA775",
"@ c #6EA876",
"# c #71AB79",
"$ c #73AD7B",
"% c #74AE7C",
"& c #77B17F",
"* c #79B381",
"= c #7BB583",
"- c #7DB785",
"; c #7FB987",
": c #81BB89",
"> c #82BC8A",
", c #85BF8D",
"< c #86C08E",
"1 c #89C391",
"2 c #8AC492",
"3 c #8CC694",
"4 c #8EC896",
"5 c #90CA98",
"6 c #92CC9A",
"7 c #94CE9C",
"8 c #97D19F",
"9 c #98D2A0",
"0 c #9BD5A3",
"q c #9CD6A4",
"w c #9ED8A6",
"e c #A0DAA8",
"r c #A2DCAA",
"t c #A4DEAC",
"y c #A7E1AF",
"u c #A8E2B0",
"i c #A9E3B1",
"p c #ACE6B4",
"a c #AFE9B7",
"s c #B1EBB9",
"d c #B2ECBA",
"f c #B5EFBD",
"g c #B7F1BF",
"h c #B9F3C1",
"j c #BBF5C3",
"k c #BCF6C4",
"l c #BFF9C7",
"z c #C1FBC9",
"x c #C4FECC",
"c c #CBFFD3",
/* pixels */
"88559911996555888878763333783487",
"88559911095655897878673333784487",
"$$00OO77**007665ddjj66ee8844we12",
"$$00OO77**006756dsjh66ee7745ew22",
"%&&&&&%%$$88>,9077ggss77ff5634qw",
"&&%%&&%%$$88,,9977ggss87ff6543wq",
"99O+90##566745lk3477ttjjer11zl34",
"99++99##657654kk4377ttjjre11lz43",
"664433676755wqzzzl44ppdd44zzrt77",
"664433767655qwzllz44ppdd44zztr77",
"3300ee88118744eehhllff45xxuu6587",
"3300ee88118844eehhllff54xxuu5588",
"qq00jk4499003487ui44cc44dd769844",
"qq90kk4490904487ui44cc44ff678844",
"5500454400>>qq8866q0455677878766",
"5500544400>>qq776609546578878866",
"qq;;qq65875677990011885578@#::77",
"q0;:qq55886577990011885577@#::78",
"44ewOo&*<14477236690<1rr1199<<56",
"44wwoo*&<1447732669911rr1<09<<65",
"00--77*&++00OOqq2244gf44hhqqaa44",
"90--77&&+O00OOqq2244ff43hjqqaa44",
"87##54ww==++1134&&66ghyyffppss88",
"77##45wq==++1143%%67hgyyffapss88",
"44$$. 57>>oo99$$%%0988df56dd8899",
"44$$  77>>oX99$$%$0088ff66ds8899",
"88&&#$@+XXwq..>:5566457777006744",
"88%&$#+OXXqw..::5566547677997644",
"6688,,::@@99O+549999328843994556",
"6688,,::@@99++450999237733005465",
"565633tt653388764487999965666678",
"656533ty563288674387999956666677"
};
