/* XPM */
static char *_3c12991e3fc4274ff752ee906430449ebhEj8rpDYvEcO3G[] = {
/* columns rows colors chars-per-pixel */
"32 32 200 2 ",
"   c #203D0D",
".  c #1E3F2C",
"X  c #1F3D33",
"o  c #2C3621",
"O  c #2C3E24",
"+  c #253D2F",
"@  c #313E24",
"#  c #353C2D",
"$  c #1C4205",
"%  c #1D431C",
"&  c #264D16",
"*  c #324117",
"=  c #3B4D18",
"-  c #3C511F",
";  c #3F581F",
":  c #2D422B",
">  c #294C2B",
",  c #374529",
"<  c #3B4D2D",
"1  c #2E502E",
"2  c #385726",
"3  c #3E5625",
"4  c #3E5428",
"5  c #2A4734",
"6  c #3C4532",
"7  c #364830",
"8  c #3B4C35",
"9  c #3F5136",
"0  c #3D543B",
"q  c #42561E",
"w  c #496B06",
"e  c #4C7404",
"r  c #53780F",
"t  c #4A6D16",
"y  c #536C19",
"u  c #4C7019",
"i  c #57751C",
"p  c #414C2A",
"a  c #455A24",
"s  c #4A5F27",
"d  c #45552C",
"f  c #435D2B",
"g  c #424637",
"h  c #444B33",
"j  c #434C3B",
"k  c #455334",
"l  c #495433",
"z  c #405C36",
"x  c #4B5A31",
"c  c #45543B",
"v  c #4B533A",
"b  c #45593C",
"n  c #4D5B3B",
"m  c #505F34",
"M  c #476724",
"N  c #4B6C24",
"B  c #46622B",
"V  c #4C632C",
"C  c #4E6D2B",
"Z  c #506C22",
"A  c #526E2B",
"S  c #4D722D",
"D  c #567923",
"F  c #587926",
"G  c #54732A",
"H  c #57792A",
"J  c #5C7D2B",
"K  c #4C6334",
"L  c #4D6C34",
"P  c #4D6439",
"I  c #4E683C",
"U  c #526535",
"Y  c #546A34",
"T  c #53653A",
"R  c #546A3B",
"E  c #5A683E",
"W  c #4C713D",
"Q  c #577535",
"!  c #5A7335",
"~  c #557836",
"^  c #5C7B35",
"/  c #55703A",
"(  c #5B753A",
")  c #5D7B3A",
"_  c #607F2F",
"`  c #627A37",
"'  c #627D3C",
"]  c #2F4940",
"[  c #304B42",
"{  c #3E5444",
"}  c #485542",
"|  c #565F44",
" . c #4E6046",
".. c #546343",
"X. c #596743",
"o. c #556942",
"O. c #5A6B42",
"+. c #5C6C4C",
"@. c #4E704D",
"#. c #547141",
"$. c #5C7342",
"%. c #5C7A44",
"&. c #5B744C",
"*. c #5C7D48",
"=. c #576B58",
"-. c #5A755A",
";. c #5E7A5C",
":. c #627C42",
">. c #697E46",
",. c #65744E",
"<. c #667C4A",
"1. c #667755",
"2. c #67715D",
"3. c #5D6F65",
"4. c #656D60",
"5. c #687A67",
"6. c #6E961E",
"7. c #6E9919",
"8. c #71971A",
"9. c #739B1F",
"0. c #5F8128",
"q. c #5D8234",
"w. c #5B803B",
"e. c #6E9622",
"r. c #6D982A",
"t. c #749627",
"y. c #739B22",
"u. c #749C2B",
"i. c #628234",
"p. c #6B8B37",
"a. c #63823C",
"s. c #69843F",
"d. c #718E3D",
"f. c #6D9235",
"g. c #759534",
"h. c #779D33",
"j. c #7B9B33",
"k. c #74953D",
"l. c #739839",
"z. c #79A627",
"x. c #7CA32D",
"c. c #7CA432",
"v. c #79A636",
"b. c #7BA13B",
"n. c #658343",
"m. c #6A8346",
"M. c #6C8A40",
"N. c #66824C",
"B. c #6B834A",
"V. c #728C48",
"C. c #729946",
"Z. c #7B9C42",
"A. c #7B9B4A",
"S. c #6B905C",
"D. c #7B9E52",
"F. c #7EA042",
"G. c #7DA358",
"H. c #729960",
"J. c #6CA674",
"K. c #73AD7B",
"L. c #76B07E",
"P. c #80A927",
"I. c #8AB927",
"U. c #85AD35",
"Y. c #86A939",
"T. c #8AB432",
"R. c #93BE39",
"E. c #92C135",
"W. c #99C83A",
"Q. c #9FD43A",
"!. c #A5D13B",
"~. c #829A4E",
"^. c #81A345",
"/. c #86A44A",
"(. c #8AB245",
"). c #95BE41",
"_. c #92BC49",
"`. c #86A45A",
"'. c #93B252",
"]. c #9DC742",
"[. c #9DC848",
"{. c #9EC953",
"}. c #A0CA4C",
"|. c #A7D647",
" X c #A5D156",
".X c #B3DE50",
"XX c #ADE248",
"oX c #B4E34F",
"OX c #7FB987",
"+X c #8BC593",
"@X c #8EC896",
"#X c #92CC9A",
"$X c #97D19F",
"%X c #9AD4A2",
"&X c #9FD9A7",
"*X c #A1DBA9",
"=X c #A8E2B0",
"-X c #B5EFBD",
";X c #BCF6C4",
":X c #C0FAC8",
/* pixels */
"$X$X#X@X%X%X+X+X&X%X#X#X@X#X$X$X* : $X$X#X#X@X+X@X+X#X$X@X@X#X$X",
"%X$X@X#X$X$X+X+X&X*X#X@X@X@X$X,.m.S.1.#X#X$X+X+X+X+X$X$X@X@X#X$X",
"K.K.%X%XJ.J.@X#XL.`.$X&X#Xf = V.A.G.G.& % #X&X&X$X$X@X@X&X&X+X+X",
"K.K.%X%XJ.J.#X#XL.L.&X$X5.3 p./.'.(.F.C.$ ;.&X&X$X#X@X@X&X%X+X+X",
"L.L.L.L.L.L.K.K.K.K.$Xo n.C.F.(.[.].T.(.A.H.> $X-X-X#X#X@X+X&X%X",
"L.L.L.K.L.L.L.K.K.K.2.B.A.F.v.E.[.!.E.9.f.D.S.-.-X;X@X@X+X@X&X&X",
"$X%XJ.J.%X%XK.K.5.= V M.F.u.[.E.|.XXI.W.u.l.D.W % 5 +X+X;X;X+X+X",
"%X$XJ.J.%X%XJ.K., $.A t v.y.E.XXQ.!.oXR.9.x.t N *.% @X@X;X;X@X@X",
"#X#X+X+X+X+X#XO T L A.l.e.z.I.W..X.X].T.P.8.g.k.N W 1.:X=X&X$X#X",
"#X#X@X@X+X+X#Xk K V.F.l.U.7.].Q.!.|.}.[.8.Y.P.Y.d.M > :X*X=X#X$X",
"+X@X%X%X*X&X$X4 K `.k.r.u.z.E.R.|. XR.).P.8.8.t./.G   =X#X#X$X$X",
"+X+X%X%X&X&X2.O.Q A.w Y.z.9.6.}.R._.{.6.8.P.Y.w C.) #.-.@X@X$X$X",
"%X&X%X%X;X4.c $.n.u h.c.y.x.x.y._._.t.c.P.t.Y.g.y ) &.0 X $X+X+X",
"%X%X%X%X;Xo o.N.s.i t.e.U.e.c.j.Y.h.u.c.y.Y.t.g.G B.1.=.[ %X@X@X",
"#X@X%X%X@X, 1.<.' 0.r u.u.x.e Y.h.r.v.e h.t.j.i ` >.1.=.] $X#X#X",
"#X#X%X%X> 2 C ) ^ ^ a.A M Z ~.Z.l.l.F.C.u t Z a.^ s.:.L 4 2.#X#X",
"%X&XOX5.1 #.~ w.a.a.m.! ! G p.l.F.b.k.f.D H H s.w.' :./ O.6 c #X",
"%X%XOX. @.w.n.^ q.a.a.' s.J i.p.^.^.p.0.F a.q.a.a.a.:.<.<.,.6 $X",
"@X@X7 5 -.n.~ a.i.' ) ' m.^ H 0.f.f.0.D _ p.a.q.) ) m.B.<.+.@ #X",
"@X@X7 5 z #.( G ^ ` ` ' a.a.H D D D D F i.i.w.( ^ ) Y ( O.n @ #X",
"%X7 3.0 &.3 Q G s.A G ` ^ n.q.q.F F i.i.a.^ ^ G A s.! E U n h h ",
"%X5 { 0 ..a :.m.' A A ` ) n.^ q.q.i.i.J s.^ ) S C m.' ` q E l v ",
"%X7 } 1 P a ' ! ! ' ( m.n.w.M S ^ J G M a.' n.( ' ! ` ! U U p v ",
"7 7 7 4 n m s ! ! ' ! Q w.~ S S w.) A C ) %.( Q ' ( Y V Y x p , ",
"7 7 : b O.T Y s s Y ` :.B.m.w.%.) ) ) ) n.N.<.( Q V V M U E l v ",
"7 5.b k X.X.d Y a ' >.>.( Q n.n.N.m.B.n.( $.N.N.%.; V x E E v h ",
"7 : j 9 P ..X.U d >.>.` B B / <.%.%.<./ B K %.N.<.a Y Y E m v h ",
"%X=.9 8 } ..X.T m = q a B V / %.<.:.%./ I 4 4 2 - f R E X.v v g ",
"#X7 7 O  .+.b ,.T E Y Y Y V f 3 2 3 3 f P R I I R T R E X.v h # ",
"#X#X7 : c } ..n X.U V V Y U R R O.$.R R R P K K P R T l n v g @X",
"@X#X7 7 } c < n T T Y Y Y U L P K B K L P I I E R P K d k c g # ",
"#X7 # g # } } } o | n k o./ K L L R U P O.E l n .., j g { # } + "
};
